<svg width="34" height="34" viewBox="0 0 34 34" fill="none" xmlns="http://www.w3.org/2000/svg">
<path d="M6.8 19.125V14.875H-9.53674e-07V19.125H6.8ZM4.76 34L10.2 28.9L8.16 25.5L2.72 30.6L4.76 34ZM8.16 8.5L10.2 5.1L4.76 0L2.72 3.4L8.16 8.5ZM28.9 31.875V23.375H30.6C31.535 23.375 32.3351 22.9592 33.0004 22.1276C33.6657 21.296 33.9989 20.2952 34 19.125V14.875C34 13.7062 33.6668 12.7061 33.0004 11.8745C32.334 11.0429 31.5339 10.6264 30.6 10.625H23.8L15.3 4.25V29.75L23.8 23.375H25.5V31.875H28.9ZM13.6 24.1188V9.88125C12.835 10.7312 12.2185 11.7675 11.7504 12.9901C11.2823 14.2127 11.0489 15.5493 11.05 17C11.0511 18.4507 11.2852 19.788 11.7521 21.012C12.219 22.236 12.835 23.2716 13.6 24.1188Z" fill="white"/>
</svg>
