<svg width="63" height="63" viewBox="0 0 63 63" fill="none" xmlns="http://www.w3.org/2000/svg">
<path opacity="0.5" d="M33.684 57.2276C41.8897 55.5843 52.5 49.6807 52.5 34.4163C52.5 20.5275 42.3334 11.277 35.0228 7.0271C33.3979 6.0821 31.5 7.32372 31.5 9.2006V13.9991C31.5 17.7843 29.9093 24.6933 25.4888 27.5677C23.2313 29.0351 20.79 26.838 20.517 24.1605L20.2913 21.9607C20.0288 19.404 17.4248 17.8526 15.3825 19.4118C11.7101 22.2075 7.875 27.1162 7.875 34.4137C7.875 53.0801 21.7586 57.75 28.6991 57.75C29.1051 57.75 29.5286 57.7368 29.9696 57.7106C31.1404 57.5636 29.9696 57.9705 33.684 57.225" fill="#E7E7E7"/>
<path d="M21 48.4155C21 55.293 26.5414 57.4193 29.9696 57.7133C31.1404 57.5663 29.9696 57.9731 33.684 57.2276C36.4114 56.2643 39.375 53.7915 39.375 48.4155C39.375 45.0109 37.2251 42.9083 35.5425 41.9239C35.028 41.622 34.4295 42.0026 34.3849 42.5959C34.2379 44.4806 32.4266 45.9821 31.1955 44.5489C30.1061 43.2836 29.6467 41.433 29.6467 40.2491V38.7004C29.6467 37.7711 28.7096 37.1516 27.9064 37.6294C24.9244 39.396 21 43.0343 21 48.4155Z" fill="white"/>
</svg>
