<svg width="105" height="18" viewBox="0 0 105 18" fill="none" xmlns="http://www.w3.org/2000/svg">
<path d="M10.5 0L12.8574 6.21885H20.4861L14.3143 10.0623L16.6717 16.2812L10.5 12.4377L4.32825 16.2812L6.68565 10.0623L0.513906 6.21885H8.1426L10.5 0Z" fill="#D64532"/>
<path d="M31.5 0L33.8574 6.21885H41.4861L35.3143 10.0623L37.6717 16.2812L31.5 12.4377L25.3283 16.2812L27.6857 10.0623L21.5139 6.21885H29.1426L31.5 0Z" fill="#D64532"/>
<path d="M52.5 0L54.8574 6.21885H62.4861L56.3143 10.0623L58.6717 16.2812L52.5 12.4377L46.3283 16.2812L48.6857 10.0623L42.5139 6.21885H50.1426L52.5 0Z" fill="#D64532"/>
<path d="M73.5 0L75.8574 6.21885H83.4861L77.3143 10.0623L79.6717 16.2812L73.5 12.4377L67.3283 16.2812L69.6857 10.0623L63.5139 6.21885H71.1426L73.5 0Z" fill="#D64532"/>
<path d="M94.5 0L96.8574 6.21885H104.486L98.3143 10.0623L100.672 16.2812L94.5 12.4377L88.3283 16.2812L90.6857 10.0623L84.5139 6.21885H92.1426L94.5 0Z" fill="#D64532"/>
</svg>
