<svg width="38" height="38" viewBox="0 0 38 38" fill="none" xmlns="http://www.w3.org/2000/svg">
<path d="M19 29.45C23.427 29.45 27.17 26.676 28.709 22.8H9.291C10.811 26.676 14.573 29.45 19 29.45ZM12.35 17.1C13.1059 17.1 13.8308 16.7997 14.3653 16.2653C14.8997 15.7308 15.2 15.0059 15.2 14.25C15.2 13.4941 14.8997 12.7692 14.3653 12.2347C13.8308 11.7003 13.1059 11.4 12.35 11.4C11.5941 11.4 10.8692 11.7003 10.3347 12.2347C9.80027 12.7692 9.5 13.4941 9.5 14.25C9.5 15.0059 9.80027 15.7308 10.3347 16.2653C10.8692 16.7997 11.5941 17.1 12.35 17.1ZM25.65 17.1C26.4059 17.1 27.1308 16.7997 27.6653 16.2653C28.1997 15.7308 28.5 15.0059 28.5 14.25C28.5 13.4941 28.1997 12.7692 27.6653 12.2347C27.1308 11.7003 26.4059 11.4 25.65 11.4C24.8941 11.4 24.1692 11.7003 23.6347 12.2347C23.1003 12.7692 22.8 13.4941 22.8 14.25C22.8 15.0059 23.1003 15.7308 23.6347 16.2653C24.1692 16.7997 24.8941 17.1 25.65 17.1ZM19 34.2C14.9687 34.2 11.1025 32.5986 8.25198 29.748C5.40142 26.8975 3.8 23.0313 3.8 19C3.8 14.9687 5.40142 11.1025 8.25198 8.25198C11.1025 5.40142 14.9687 3.8 19 3.8C23.0313 3.8 26.8975 5.40142 29.748 8.25198C32.5986 11.1025 34.2 14.9687 34.2 19C34.2 23.0313 32.5986 26.8975 29.748 29.748C26.8975 32.5986 23.0313 34.2 19 34.2ZM19 0C8.493 0 0 8.55 0 19C0 24.0391 2.00178 28.8718 5.56497 32.435C7.32928 34.1993 9.42383 35.5989 11.729 36.5537C14.0342 37.5086 16.5049 38 19 38C24.0391 38 28.8718 35.9982 32.435 32.435C35.9982 28.8718 38 24.0391 38 19C38 16.5049 37.5086 14.0342 36.5537 11.729C35.5989 9.42383 34.1993 7.32928 32.435 5.56497C30.6707 3.80066 28.5762 2.40113 26.271 1.44629C23.9658 0.49145 21.4951 0 19 0Z" fill="white"/>
</svg>
