<svg width="30" height="30" viewBox="0 0 30 30" fill="none" xmlns="http://www.w3.org/2000/svg">
<g clip-path="url(#clip0_75_2999)">
<path fill-rule="evenodd" clip-rule="evenodd" d="M12.2055 1.33812L10.9361 2.26999C10.7125 2.44841 10.4755 2.6095 10.2274 2.75187C10.0603 2.84071 9.88509 2.91353 9.70425 2.96937C9.49987 3.03124 9.288 3.06312 8.86237 3.12874L7.30612 3.36687C6.078 3.55437 5.463 3.64999 4.98112 3.93687C4.54987 4.18999 4.19175 4.54999 3.93675 4.98125C3.64987 5.46875 3.55612 6.08375 3.36675 7.30625L3.12862 8.8625C3.063 9.28812 3.03112 9.50187 2.96925 9.70625C2.913 9.8875 2.8405 10.0612 2.75175 10.2275C2.6505 10.415 2.52487 10.5894 2.26987 10.9362L1.338 12.2056C0.602997 13.2069 0.235497 13.7075 0.0929974 14.2494C-0.0298598 14.7336 -0.0298598 15.2408 0.0929974 15.725C0.233622 16.2725 0.602997 16.775 1.338 17.7687L2.26987 19.0381C2.52487 19.385 2.65237 19.5594 2.75175 19.7469C2.83925 19.9144 2.91175 20.0894 2.96925 20.2719C3.03112 20.4744 3.063 20.6862 3.12862 21.1119L3.36675 22.6681C3.55425 23.8962 3.64987 24.5094 3.93675 24.9931C4.18987 25.4244 4.54987 25.7844 4.98112 26.0375C5.46862 26.3244 6.08362 26.4181 7.30612 26.6075L8.86237 26.8456C9.288 26.9112 9.50175 26.945 9.70425 27.0069C9.8855 27.0619 10.0599 27.1344 10.2274 27.2244C10.4149 27.3237 10.5892 27.4494 10.9361 27.7062L12.2055 28.6381C13.2067 29.3731 13.7074 29.7406 14.2492 29.8831C14.733 30.0087 15.2411 30.0087 15.7249 29.8831C16.2724 29.7406 16.7749 29.3731 17.7686 28.6381L19.038 27.7062C19.3849 27.4512 19.5592 27.3237 19.7467 27.2244C19.9142 27.1344 20.0886 27.0619 20.2699 27.0069C20.4742 26.945 20.6861 26.9131 21.1117 26.8456L22.668 26.6075C23.8961 26.42 24.5093 26.3262 24.993 26.0375C25.4242 25.7844 25.7843 25.4244 26.0374 24.9931C26.3243 24.5056 26.418 23.8906 26.6074 22.6681L26.8455 21.1119C26.9111 20.6862 26.943 20.4744 27.0049 20.27C27.0611 20.0887 27.1336 19.9144 27.2224 19.7469C27.3236 19.5594 27.4493 19.385 27.7043 19.0381L28.6361 17.7687C29.3711 16.7675 29.7386 16.2687 29.8811 15.725C30.004 15.2408 30.004 14.7336 29.8811 14.2494C29.7405 13.7019 29.3711 13.1994 28.6361 12.2056L27.7043 10.9362C27.5258 10.7126 27.3647 10.4757 27.2224 10.2275C27.1335 10.0604 27.0607 9.88522 27.0049 9.70437C26.9304 9.42821 26.8771 9.14677 26.8455 8.8625L26.6074 7.30625C26.4199 6.07812 26.3243 5.46312 26.0374 4.98125C25.7817 4.55153 25.4227 4.19252 24.993 3.93687C24.5055 3.64999 23.8905 3.55624 22.668 3.36687L21.1117 3.12874C20.8275 3.0971 20.546 3.04382 20.2699 2.96937C20.0886 2.91466 19.9134 2.84179 19.7467 2.75187C19.4986 2.6095 19.2617 2.44841 19.038 2.26999L17.7686 1.33812C16.7674 0.60312 16.2667 0.23562 15.7249 0.0931195C15.2407 -0.0297378 14.7335 -0.0297378 14.2492 0.0931195C13.7017 0.23562 13.1993 0.60312 12.2055 1.33812ZM22.1992 11.4819C22.6567 10.9212 22.563 10.1056 21.993 9.6575C21.423 9.20937 20.5886 9.30125 20.133 9.86L13.9267 17.4725L10.608 14.9225C10.3369 14.7019 9.99034 14.5958 9.64219 14.627C9.29405 14.6582 8.97184 14.8241 8.74425 15.0894C8.63306 15.2195 8.54908 15.3706 8.49726 15.5337C8.44545 15.6968 8.42686 15.8686 8.4426 16.0391C8.45833 16.2095 8.50806 16.375 8.58886 16.5259C8.66965 16.6768 8.77987 16.8099 8.913 16.9175L13.263 20.3112C13.5377 20.5347 13.8896 20.6404 14.242 20.6053C14.5943 20.5701 14.9185 20.397 15.1436 20.1237L22.1936 11.4612L22.1992 11.4819Z" fill="black"/>
</g>
<defs>
<clipPath id="clip0_75_2999">
<rect width="30" height="30" fill="white"/>
</clipPath>
</defs>
</svg>
