<svg width="47" height="47" viewBox="0 0 47 47" fill="none" xmlns="http://www.w3.org/2000/svg">
<g clip-path="url(#clip0_64_215)">
<path d="M0.995253 23.2183C0.99416 27.1672 2.02598 31.023 3.98795 34.4216L0.807617 46.0335L12.691 42.9177C15.9778 44.7069 19.6604 45.6445 23.4026 45.6448H23.4125C35.7664 45.6448 45.8227 35.592 45.828 23.2359C45.8304 17.2485 43.5008 11.6184 39.2682 7.38254C35.0364 3.14707 29.4082 0.813279 23.4115 0.810547C11.0562 0.810547 1.00054 10.8627 0.995435 23.2183" fill="url(#paint0_linear_64_215)"/>
<path d="M0.194922 23.2114C0.193647 27.3024 1.26244 31.2961 3.29437 34.8164L0 46.8446L12.3094 43.617C15.7011 45.4662 19.5198 46.4412 23.4055 46.4427H23.4155C36.2126 46.4427 46.6302 36.0284 46.6357 23.23C46.6378 17.0275 44.2244 11.1949 39.8407 6.80734C35.4564 2.42031 29.6269 0.00255038 23.4155 0C10.6162 0 0.200023 10.4129 0.194922 23.2114ZM7.52565 34.2101L7.06603 33.4805C5.13393 30.4084 4.11414 26.8583 4.1156 23.2129C4.1196 12.575 12.7771 3.92031 23.4228 3.92031C28.5782 3.92249 33.4232 5.93219 37.0673 9.57852C40.7113 13.2252 42.7164 18.0728 42.7152 23.2285C42.7104 33.8664 34.0528 42.5222 23.4155 42.5222H23.4078C19.9442 42.5204 16.5473 41.5902 13.5848 39.8325L12.8798 39.4144L5.57515 41.3295L7.52565 34.2101Z" fill="url(#paint1_linear_64_215)"/>
<path d="M17.6115 13.5082C17.1768 12.5421 16.7194 12.5226 16.306 12.5057C15.9675 12.4911 15.5806 12.4922 15.194 12.4922C14.8071 12.4922 14.1784 12.6378 13.6471 13.218C13.1151 13.7987 11.6162 15.2022 11.6162 18.0566C11.6162 20.911 13.6953 23.6698 13.9852 24.0573C14.2754 24.444 17.9989 30.4892 23.8962 32.8148C28.7973 34.7474 29.7947 34.363 30.8584 34.2661C31.9222 34.1696 34.2912 32.863 34.7745 31.5082C35.2581 30.1536 35.2581 28.9925 35.1131 28.7498C34.9681 28.5081 34.5812 28.3629 34.001 28.0729C33.4208 27.7829 30.5682 26.3791 30.0364 26.1854C29.5045 25.9919 29.1177 25.8954 28.7308 26.4763C28.3439 27.0564 27.2328 28.3629 26.8941 28.7498C26.5559 29.1377 26.2172 29.1859 25.6372 28.8957C25.0566 28.6046 23.1881 27.9927 20.9712 26.0163C19.2464 24.4785 18.082 22.5793 17.7435 21.9984C17.4051 21.4184 17.7073 21.1039 17.9982 20.8148C18.2589 20.5549 18.5786 20.1373 18.869 19.7987C19.1583 19.4599 19.2548 19.2181 19.4483 18.8312C19.6419 18.4439 19.545 18.1051 19.4002 17.8149C19.2548 17.5247 18.1274 14.6553 17.6115 13.5082Z" fill="white"/>
</g>
<defs>
<linearGradient id="paint0_linear_64_215" x1="2251.83" y1="4523.11" x2="2251.83" y2="0.810547" gradientUnits="userSpaceOnUse">
<stop stop-color="#1FAF38"/>
<stop offset="1" stop-color="#60D669"/>
</linearGradient>
<linearGradient id="paint1_linear_64_215" x1="2331.78" y1="4684.46" x2="2331.78" y2="0" gradientUnits="userSpaceOnUse">
<stop stop-color="#F9F9F9"/>
<stop offset="1" stop-color="white"/>
</linearGradient>
<clipPath id="clip0_64_215">
<rect width="46.6357" height="47" fill="white"/>
</clipPath>
</defs>
</svg>
